<svg xmlns="http://www.w3.org/2000/svg" viewBox="0 0 853 832" role="img" aria-labelledby="title description">
<title id="title">Canonical pavilion normalized study</title>
<desc id="description">Offline normalized block and landscape schematic; not a surveyed site plan.</desc>
<rect width="100%" height="100%" fill="#fbfaf6"/>
<path d="M368.32,245.67 L368.32,166.96 L305.35,166.96 L305.35,245.67 L368.32,245.67 Z" fill="#e6ecd9" stroke="#8a9a7c" stroke-width="1.5"/>
<path d="M376.19,489.67 L376.19,426.71 L297.48,426.71 L297.48,489.67 L376.19,489.67 Z" fill="#e6ecd9" stroke="#8a9a7c" stroke-width="1.5"/>
<path d="M816.97,399.16 L816.97,359.80 L769.74,359.80 L769.74,399.16 L816.97,399.16 Z" fill="#e6ecd9" stroke="#8a9a7c" stroke-width="1.5"/>
<path d="M360.45,588.06 L360.45,548.71 L313.22,548.71 L313.22,588.06 L360.45,588.06 Z" fill="#e6ecd9" stroke="#8a9a7c" stroke-width="1.5"/>
<path d="M108.58,556.58 L108.58,517.22 L45.61,517.22 L45.61,556.58 L108.58,556.58 Z" fill="#e6ecd9" stroke="#8a9a7c" stroke-width="1.5"/>
<path d="M256.31,140.00 L259.40,143.22 L262.85,146.14 L266.69,148.78 L270.94,151.15 L275.62,153.24 L280.74,155.03 L286.31,156.53 L292.34,157.71 L298.82,158.57 L305.95,159.11 L304.75,174.81 L297.40,174.25 L296.97,174.20 L290.03,173.28 L289.55,173.20 L283.02,171.92 L282.49,171.80 L276.38,170.16 L275.81,169.99 L270.10,167.99 L269.50,167.75 L264.21,165.39 L263.58,165.07 L258.70,162.35 L258.07,161.96 L253.60,158.88 L252.97,158.40 L248.91,154.96 L248.32,154.41 L244.67,150.61 L244.14,149.99 L240.90,145.83 L240.44,145.17 L237.62,140.65 L244.29,136.48 L245.38,135.90 L245.88,135.48 L250.96,132.31 L253.57,136.48 L256.31,140.00 Z" fill="#e8c879" stroke="#aa8d49" stroke-width="1.2"/>
<path d="M280.09,328.24 L283.48,321.75 L286.52,314.88 L289.19,307.62 L291.49,299.97 L293.43,291.93 L295.00,283.50 L296.19,274.66 L297.00,265.43 L297.43,255.81 L297.48,245.64 L313.22,245.71 L313.18,256.04 L313.17,256.35 L312.72,266.31 L312.70,266.65 L311.86,276.23 L311.82,276.59 L310.57,285.79 L310.51,286.18 L308.87,295.01 L308.78,295.42 L306.74,303.88 L306.63,304.30 L304.19,312.39 L304.04,312.83 L301.20,320.54 L301.02,321.00 L297.78,328.34 L297.56,328.80 L293.93,335.76 L293.66,336.23 L289.63,342.82 L289.32,343.28 L284.89,349.49 L278.48,344.92 L279.07,343.83 L279.42,342.65 L279.55,341.42 L279.55,329.14 L280.09,328.24 Z" fill="#e8c879" stroke="#aa8d49" stroke-width="1.2"/>
<path d="M391.70,332.07 L390.48,322.24 L388.86,312.79 L386.86,303.72 L384.46,295.02 L381.69,286.69 L378.52,278.72 L374.98,271.13 L371.06,263.89 L366.75,257.00 L361.92,250.26 L374.72,241.09 L379.70,248.03 L379.97,248.45 L384.54,255.75 L384.78,256.17 L388.94,263.84 L389.15,264.26 L392.89,272.28 L393.07,272.70 L396.40,281.08 L396.55,281.50 L399.46,290.23 L399.59,290.64 L400.54,294.09 L400.46,294.34 L400.34,295.57 L400.34,322.84 L400.46,324.06 L400.82,325.25 L401.40,326.33 L402.18,327.29 L403.14,328.07 L404.23,328.65 L405.41,329.01 L406.64,329.13 L407.19,329.13 L407.33,330.20 L406.64,330.20 L405.41,330.32 L404.23,330.68 L403.14,331.26 L402.18,332.05 L401.40,333.00 L400.82,334.09 L400.46,335.27 L400.34,336.50 L400.34,350.27 L400.46,351.50 L400.82,352.68 L392.95,353.00 L392.52,342.27 L391.70,332.07 Z" fill="#e8c879" stroke="#aa8d49" stroke-width="1.2"/>
<path d="M393.18,149.09 L389.70,149.91 L386.74,150.95 L384.27,152.18 L382.24,153.58 L380.58,155.14 L379.20,156.90 L378.07,158.94 L377.18,161.33 L376.54,164.14 L376.15,167.80 L360.49,166.13 L360.93,162.00 L361.09,161.09 L361.95,157.31 L362.25,156.30 L363.54,152.87 L363.76,152.34 L364.02,151.82 L365.73,148.74 L366.05,148.21 L366.40,147.71 L368.53,144.98 L368.93,144.51 L369.37,144.07 L371.92,141.68 L372.36,141.29 L372.84,140.94 L375.82,138.89 L376.76,138.34 L380.15,136.65 L381.05,136.27 L384.86,134.92 L385.68,134.68 L389.92,133.68 L390.63,133.55 L395.30,132.89 L395.91,132.83 L396.40,132.80 L396.40,134.21 L396.52,135.44 L396.88,136.62 L397.46,137.71 L398.25,138.66 L399.20,139.44 L400.29,140.03 L401.47,140.38 L401.94,148.24 L397.17,148.53 L393.18,149.09 Z" fill="#e8c879" stroke="#aa8d49" stroke-width="1.2"/>
<path d="M389.22,796.00 L389.22,655.61 L284.45,655.61 L284.45,796.00 L389.22,796.00 Z" fill="#d9e4d3" stroke="#39434a" stroke-width="2"/>
<text x="336.84" y="725.80" text-anchor="middle" font-family="sans-serif" font-size="12" fill="#20272b">ADMIN_ACOLHIMENTO</text>
<path d="M197.80,116.89 L197.92,115.66 L198.28,114.48 L198.86,113.39 L199.65,112.44 L199.98,112.17 L199.65,111.90 L198.86,110.94 L198.28,109.85 L197.92,108.67 L197.80,107.44 L197.80,80.18 L197.92,78.95 L198.28,77.77 L198.86,76.68 L199.65,75.73 L199.98,75.45 L199.65,75.18 L198.86,74.23 L198.28,73.14 L197.92,71.96 L197.80,70.73 L197.80,45.84 L197.92,44.61 L198.28,43.43 L198.86,42.34 L199.65,41.39 L200.60,40.61 L201.69,40.02 L202.87,39.67 L204.10,39.55 L228.99,39.55 L230.22,39.67 L231.40,40.02 L232.14,40.42 L232.88,40.02 L234.06,39.67 L235.29,39.55 L260.18,39.55 L261.40,39.67 L262.59,40.02 L263.67,40.61 L264.63,41.39 L265.41,42.34 L265.99,43.43 L266.35,44.61 L266.47,45.84 L266.47,70.73 L266.35,71.96 L265.99,73.14 L265.57,73.94 L266.16,74.00 L267.34,74.36 L268.43,74.94 L269.38,75.73 L270.16,76.68 L270.74,77.77 L271.10,78.95 L271.22,80.18 L271.22,107.44 L271.10,108.67 L270.74,109.85 L270.16,110.94 L269.38,111.90 L268.43,112.68 L267.34,113.26 L266.16,113.62 L264.93,113.74 L247.30,113.74 L247.70,114.48 L248.06,115.66 L248.18,116.89 L248.18,130.66 L248.06,131.89 L247.70,133.07 L247.12,134.16 L246.33,135.12 L245.38,135.90 L244.29,136.48 L243.11,136.84 L241.88,136.96 L226.14,136.96 L224.91,136.84 L223.73,136.48 L222.99,136.09 L222.25,136.48 L221.07,136.84 L219.84,136.96 L204.10,136.96 L202.87,136.84 L201.69,136.48 L200.60,135.90 L199.65,135.12 L198.86,134.16 L198.28,133.07 L197.92,131.89 L197.80,130.66 L197.80,116.89 Z" fill="#d9e4d3" stroke="#39434a" stroke-width="2"/>
<text x="231.54" y="85.92" text-anchor="middle" font-family="sans-serif" font-size="12" fill="#20272b">RES_PAV_A</text>
<path d="M189.48,327.65 L189.60,326.42 L189.96,325.24 L190.54,324.15 L191.32,323.20 L191.65,322.93 L191.32,322.66 L190.54,321.70 L189.96,320.61 L189.60,319.43 L189.48,318.21 L189.48,287.72 L189.60,286.49 L189.96,285.31 L190.54,284.22 L191.32,283.27 L192.28,282.49 L193.37,281.90 L194.55,281.55 L195.78,281.42 L226.26,281.42 L227.49,281.55 L228.67,281.90 L229.41,282.30 L230.15,281.90 L231.33,281.55 L232.56,281.42 L263.04,281.42 L264.27,281.55 L265.45,281.90 L266.54,282.49 L267.50,283.27 L268.28,284.22 L268.86,285.31 L269.22,286.49 L269.34,287.72 L269.34,318.21 L269.22,319.43 L268.86,320.61 L268.47,321.35 L273.25,321.35 L274.48,321.47 L275.66,321.83 L276.75,322.41 L277.70,323.20 L278.48,324.15 L279.07,325.24 L279.42,326.42 L279.55,327.65 L279.55,341.42 L279.42,342.65 L279.07,343.83 L278.48,344.92 L277.70,345.88 L276.75,346.66 L275.66,347.24 L274.48,347.60 L273.25,347.72 L257.51,347.72 L256.28,347.60 L255.10,347.24 L254.36,346.85 L253.62,347.24 L252.44,347.60 L251.21,347.72 L235.47,347.72 L235.47,361.04 L235.35,362.27 L234.99,363.45 L234.41,364.54 L233.62,365.50 L232.67,366.28 L231.58,366.86 L230.40,367.22 L229.17,367.34 L195.78,367.34 L194.55,367.22 L193.37,366.86 L192.28,366.28 L191.32,365.50 L190.54,364.54 L189.96,363.45 L189.60,362.27 L189.48,361.04 L189.48,327.65 Z" fill="#d9e4d3" stroke="#39434a" stroke-width="2"/>
<text x="228.86" y="321.35" text-anchor="middle" font-family="sans-serif" font-size="12" fill="#20272b">RES_PAV_B</text>
<path d="M400.34,336.50 L400.46,335.27 L400.82,334.09 L401.40,333.00 L402.18,332.05 L403.14,331.26 L404.23,330.68 L405.41,330.32 L406.64,330.20 L422.38,330.20 L423.61,330.32 L424.79,330.68 L425.53,331.08 L426.26,330.68 L427.45,330.32 L428.67,330.20 L434.78,330.20 L434.38,329.46 L434.27,329.10 L433.90,329.13 L406.64,329.13 L405.41,329.01 L404.23,328.65 L403.14,328.07 L402.18,327.29 L401.40,326.33 L400.82,325.25 L400.46,324.06 L400.34,322.84 L400.34,295.57 L400.46,294.34 L400.82,293.16 L401.40,292.07 L402.18,291.12 L403.14,290.33 L404.23,289.75 L405.41,289.39 L406.64,289.27 L433.90,289.27 L435.13,289.39 L436.31,289.75 L437.05,290.15 L437.79,289.75 L438.97,289.39 L440.20,289.27 L471.68,289.27 L472.91,289.39 L474.09,289.75 L475.18,290.33 L476.14,291.12 L476.92,292.07 L477.50,293.16 L477.86,294.34 L477.98,295.57 L477.98,327.05 L477.86,328.28 L477.50,329.46 L476.92,330.55 L476.14,331.51 L475.18,332.29 L474.09,332.87 L472.91,333.23 L471.68,333.35 L450.79,333.35 L451.19,334.09 L451.55,335.27 L451.67,336.50 L451.67,353.20 L451.55,354.42 L451.19,355.61 L450.61,356.69 L449.82,357.65 L448.87,358.43 L447.78,359.01 L446.60,359.37 L445.37,359.49 L428.67,359.49 L427.45,359.37 L426.26,359.01 L425.18,358.43 L424.22,357.65 L423.44,356.69 L423.32,356.48 L422.38,356.57 L406.64,356.57 L405.41,356.45 L404.23,356.09 L403.14,355.51 L402.18,354.73 L401.40,353.77 L400.82,352.68 L400.46,351.50 L400.34,350.27 L400.34,336.50 Z" fill="#d9e4d3" stroke="#39434a" stroke-width="2"/>
<text x="436.03" y="320.49" text-anchor="middle" font-family="sans-serif" font-size="12" fill="#20272b">RES_PAV_C</text>
<path d="M396.40,42.30 L396.52,41.07 L396.88,39.89 L397.46,38.80 L398.25,37.84 L399.20,37.06 L400.29,36.48 L401.47,36.12 L402.70,36.00 L445.81,36.00 L447.04,36.12 L448.22,36.48 L449.31,37.06 L450.26,37.84 L451.05,38.80 L451.63,39.89 L451.99,41.07 L452.11,42.30 L452.11,85.41 L451.99,86.64 L451.63,87.82 L451.23,88.56 L475.62,88.56 L476.85,88.68 L478.03,89.04 L479.12,89.62 L480.07,90.40 L480.85,91.35 L481.44,92.44 L481.79,93.62 L481.91,94.85 L481.91,122.12 L481.79,123.35 L481.44,124.53 L480.85,125.62 L480.07,126.57 L479.12,127.35 L478.03,127.94 L476.85,128.30 L475.62,128.42 L448.35,128.42 L448.35,134.21 L448.23,135.44 L447.87,136.62 L447.29,137.71 L446.51,138.66 L445.55,139.44 L444.46,140.03 L443.28,140.38 L442.06,140.51 L402.70,140.51 L401.47,140.38 L400.29,140.03 L399.20,139.44 L398.25,138.66 L397.46,137.71 L396.88,136.62 L396.52,135.44 L396.40,134.21 L396.40,94.85 L396.52,93.62 L396.88,92.44 L397.46,91.35 L398.25,90.40 L398.58,90.13 L398.25,89.86 L397.46,88.91 L396.88,87.82 L396.52,86.64 L396.40,85.41 L396.40,42.30 Z" fill="#d9e4d3" stroke="#39434a" stroke-width="2"/>
<text x="431.33" y="91.38" text-anchor="middle" font-family="sans-serif" font-size="12" fill="#20272b">RES_PAV_D_COMMUNAL</text>
<path d="M509.02,495.13 L510.01,495.23 L510.97,495.52 L511.86,495.99 L512.63,496.63 L513.27,497.40 L513.74,498.29 L514.03,499.25 L514.13,500.25 L514.13,539.60 L514.03,540.60 L513.74,541.56 L513.27,542.44 L512.63,543.22 L511.86,543.85 L511.60,543.99 L511.98,544.03 L512.94,544.32 L513.82,544.79 L514.60,545.43 L515.23,546.20 L515.71,547.09 L516.00,548.05 L516.10,549.05 L516.10,564.79 L516.00,565.79 L515.71,566.75 L515.23,567.63 L514.60,568.41 L513.82,569.04 L512.94,569.51 L511.98,569.81 L510.98,569.90 L495.24,569.90 L494.24,569.81 L493.85,569.69 L493.67,570.28 L493.20,571.17 L492.56,571.94 L491.78,572.58 L491.64,572.66 L496.93,572.66 L497.93,572.75 L498.89,573.04 L499.77,573.52 L500.54,574.15 L501.18,574.93 L501.65,575.81 L501.95,576.77 L502.04,577.77 L502.04,605.04 L501.96,605.86 L502.07,606.58 L502.13,607.74 L502.07,608.90 L501.90,610.04 L501.62,611.17 L501.23,612.26 L500.73,613.30 L500.14,614.30 L499.45,615.23 L498.67,616.09 L497.81,616.87 L496.88,617.56 L495.89,618.15 L494.84,618.65 L493.75,619.04 L492.62,619.32 L491.48,619.49 L490.32,619.55 L470.64,619.55 L469.51,619.49 L468.39,619.33 L467.29,619.06 L466.22,618.68 L465.19,618.21 L464.21,617.64 L463.29,616.97 L462.44,616.23 L461.66,615.40 L460.97,614.50 L460.36,613.54 L459.85,612.53 L459.44,611.47 L451.57,587.86 L451.24,586.64 L451.03,585.39 L450.97,584.13 L450.97,521.16 L451.01,520.10 L451.16,519.05 L451.39,518.02 L451.72,517.01 L463.52,485.53 L463.94,484.55 L464.44,483.62 L465.03,482.73 L465.69,481.90 L493.24,450.42 L493.78,449.84 L525.26,418.36 L526.04,417.65 L526.87,417.01 L527.75,416.45 L555.30,400.71 L556.29,400.21 L557.33,399.80 L558.40,399.48 L559.49,399.28 L587.04,395.34 L588.15,395.23 L589.27,395.23 L590.38,395.34 L617.93,399.28 L619.02,399.48 L620.09,399.80 L621.12,400.21 L622.11,400.71 L649.66,416.45 L650.55,417.01 L651.38,417.65 L652.15,418.36 L683.64,449.84 L684.17,450.42 L711.72,481.90 L712.39,482.73 L712.97,483.62 L713.48,484.55 L713.89,485.53 L725.70,517.01 L726.03,518.02 L726.26,519.05 L726.40,520.10 L726.45,521.16 L726.45,584.13 L726.38,585.39 L726.18,586.64 L725.84,587.86 L717.97,611.47 L717.56,612.53 L717.05,613.54 L716.45,614.50 L715.76,615.40 L714.98,616.23 L714.13,616.97 L713.21,617.64 L712.23,618.21 L711.20,618.68 L710.13,619.06 L709.03,619.33 L707.91,619.49 L706.77,619.55 L687.10,619.55 L685.94,619.49 L684.79,619.32 L683.67,619.04 L682.58,618.65 L681.53,618.15 L680.54,617.56 L679.61,616.87 L678.75,616.09 L677.97,615.23 L677.28,614.30 L676.68,613.30 L676.19,612.26 L675.80,611.17 L675.52,610.04 L675.35,608.90 L675.29,607.74 L675.35,606.58 L675.52,605.44 L675.80,604.31 L676.19,603.22 L676.68,602.17 L677.28,601.18 L677.92,600.31 L677.49,599.95 L676.85,599.17 L676.38,598.29 L676.09,597.33 L676.09,597.33 L675.81,597.41 L674.81,597.51 L659.07,597.51 L658.07,597.41 L657.11,597.12 L656.22,596.65 L655.45,596.01 L654.81,595.24 L654.34,594.35 L654.05,593.39 L653.95,592.40 L653.95,580.59 L654.05,579.59 L654.34,578.63 L654.81,577.75 L655.45,576.97 L656.22,576.34 L657.10,575.87 L656.22,575.40 L655.45,574.76 L654.81,573.99 L654.34,573.10 L654.05,572.14 L653.95,571.14 L653.95,548.88 L654.05,547.88 L654.34,546.92 L654.81,546.04 L655.45,545.26 L656.22,544.63 L657.10,544.16 L656.22,543.69 L655.45,543.05 L654.81,542.28 L654.34,541.39 L654.05,540.43 L653.95,539.44 L653.95,508.95 L654.05,507.95 L654.34,506.99 L654.81,506.11 L655.45,505.33 L656.22,504.70 L657.11,504.23 L658.07,503.93 L659.07,503.84 L689.55,503.84 L690.55,503.93 L691.51,504.23 L692.39,504.70 L692.70,504.95 L693.00,504.70 L693.89,504.23 L694.85,503.93 L695.55,503.87 L692.54,495.83 L666.66,466.26 L638.59,438.19 L638.59,457.84 L638.49,458.84 L638.20,459.80 L637.73,460.68 L637.09,461.46 L636.31,462.09 L635.43,462.57 L634.47,462.86 L633.47,462.96 L611.21,462.96 L610.21,462.86 L610.03,462.80 L610.03,496.54 L609.93,497.54 L609.64,498.50 L609.17,499.39 L608.53,500.16 L607.76,500.80 L606.87,501.27 L605.91,501.56 L604.91,501.66 L543.94,501.66 L542.95,501.56 L541.99,501.27 L541.10,500.80 L540.33,500.16 L539.69,499.39 L539.22,498.50 L538.93,497.54 L538.83,496.54 L538.83,438.19 L510.75,466.26 L485.49,495.13 L509.02,495.13 Z" fill="#d9e4d3" stroke="#39434a" stroke-width="2"/>
<text x="588.96" y="505.97" text-anchor="middle" font-family="sans-serif" font-size="12" fill="#20272b">SERVICE_CAPACITATION</text>
<path d="M118.19,493.80 L118.19,422.58 L36.00,422.58 L36.00,493.80 L118.19,493.80 Z" fill="#d9e4d3" stroke="#39434a" stroke-width="2"/>
<text x="77.09" y="458.19" text-anchor="middle" font-family="sans-serif" font-size="12" fill="#20272b">CHILD_SECTOR</text>
<text x="36" y="820" font-family="sans-serif" font-size="12" fill="#4d5559">NORMALIZED STUDY — NOT A SURVEY — NOT A REVIT MODEL</text>
</svg>
