0
SECTION
2
HEADER
9
$ACADVER
1
AC1009
9
$INSUNITS
70
6
9
$EXTMIN
10
0.0
20
0.0
30
0.0
9
$EXTMAX
10
102.3710
20
23.1500
30
0.0
0
ENDSEC
0
SECTION
2
TABLES
0
TABLE
2
LAYER
70
7
0
LAYER
2
AMANDA-PAREDES
70
0
62
7
6
CONTINUOUS
0
LAYER
2
AMANDA-AMBIENTES
70
0
62
7
6
CONTINUOUS
0
LAYER
2
AMANDA-GALERIA
70
0
62
7
6
CONTINUOUS
0
LAYER
2
AMANDA-VARANDA
70
0
62
7
6
CONTINUOUS
0
LAYER
2
AMANDA-PATIO
70
0
62
7
6
CONTINUOUS
0
LAYER
2
AMANDA-ABERTURAS
70
0
62
7
6
CONTINUOUS
0
LAYER
2
AMANDA-TEXTO
70
0
62
7
6
CONTINUOUS
0
ENDTAB
0
ENDSEC
0
SECTION
2
ENTITIES
0
LWPOLYLINE
8
AMANDA-PATIO
62
3
90
4
70
1
10
5.125000
20
16.525000
10
5.125000
20
24.525000
10
94.245952
20
24.525000
10
94.245952
20
16.525000
0
LWPOLYLINE
8
AMANDA-VARANDA
62
8
90
4
70
1
10
94.245952
20
15.025000
10
94.245952
20
16.525000
10
5.125000
20
16.525000
10
5.125000
20
15.025000
0
LWPOLYLINE
8
AMANDA-AMBIENTES
62
4
90
4
70
1
10
7.505952
20
5.125000
10
7.505952
20
9.325000
10
5.125000
20
9.325000
10
5.125000
20
5.125000
0
TEXT
8
AMANDA-TEXTO
62
7
10
5.865476
20
7.000000
30
0.000000
40
0.4500
1
REQ-01-01
0
LWPOLYLINE
8
AMANDA-AMBIENTES
62
4
90
4
70
1
10
11.077381
20
5.125000
10
11.077381
20
9.325000
10
7.505952
20
9.325000
10
7.505952
20
5.125000
0
TEXT
8
AMANDA-TEXTO
62
7
10
8.841667
20
7.000000
30
0.000000
40
0.4500
1
REQ-01-02
0
LWPOLYLINE
8
AMANDA-AMBIENTES
62
4
90
4
70
1
10
13.934524
20
5.125000
10
13.934524
20
9.325000
10
11.077381
20
9.325000
10
11.077381
20
5.125000
0
TEXT
8
AMANDA-TEXTO
62
7
10
12.055952
20
7.000000
30
0.000000
40
0.4500
1
REQ-01-03
0
LWPOLYLINE
8
AMANDA-AMBIENTES
62
4
90
4
70
1
10
16.315476
20
5.125000
10
16.315476
20
9.325000
10
13.934524
20
9.325000
10
13.934524
20
5.125000
0
TEXT
8
AMANDA-TEXTO
62
7
10
14.675000
20
7.000000
30
0.000000
40
0.4500
1
REQ-01-04
0
LWPOLYLINE
8
AMANDA-AMBIENTES
62
4
90
4
70
1
10
17.815476
20
5.325000
10
17.815476
20
9.325000
10
16.315476
20
9.325000
10
16.315476
20
5.325000
0
TEXT
8
AMANDA-TEXTO
62
7
10
16.615476
20
7.100000
30
0.000000
40
0.4500
1
REQ-01-05
0
LWPOLYLINE
8
AMANDA-AMBIENTES
62
4
90
4
70
1
10
7.505952
20
10.825000
10
7.505952
20
15.025000
10
5.125000
20
15.025000
10
5.125000
20
10.825000
0
TEXT
8
AMANDA-TEXTO
62
7
10
5.865476
20
12.700000
30
0.000000
40
0.4500
1
REQ-02-01#1
0
LWPOLYLINE
8
AMANDA-AMBIENTES
62
4
90
4
70
1
10
9.886905
20
10.825000
10
9.886905
20
15.025000
10
7.505952
20
15.025000
10
7.505952
20
10.825000
0
TEXT
8
AMANDA-TEXTO
62
7
10
8.246429
20
12.700000
30
0.000000
40
0.4500
1
REQ-02-01#2
0
LWPOLYLINE
8
AMANDA-AMBIENTES
62
4
90
4
70
1
10
12.744048
20
10.825000
10
12.744048
20
15.025000
10
9.886905
20
15.025000
10
9.886905
20
10.825000
0
TEXT
8
AMANDA-TEXTO
62
7
10
10.865476
20
12.700000
30
0.000000
40
0.4500
1
REQ-02-02#1
0
LWPOLYLINE
8
AMANDA-AMBIENTES
62
4
90
4
70
1
10
15.601190
20
10.825000
10
15.601190
20
15.025000
10
12.744048
20
15.025000
10
12.744048
20
10.825000
0
TEXT
8
AMANDA-TEXTO
62
7
10
13.722619
20
12.700000
30
0.000000
40
0.4500
1
REQ-02-02#2
0
LWPOLYLINE
8
AMANDA-AMBIENTES
62
4
90
4
70
1
10
18.458333
20
10.825000
10
18.458333
20
15.025000
10
15.601190
20
15.025000
10
15.601190
20
10.825000
0
TEXT
8
AMANDA-TEXTO
62
7
10
16.579762
20
12.700000
30
0.000000
40
0.4500
1
REQ-02-02#3
0
LWPOLYLINE
8
AMANDA-AMBIENTES
62
4
90
4
70
1
10
22.029762
20
10.825000
10
22.029762
20
15.025000
10
18.458333
20
15.025000
10
18.458333
20
10.825000
0
TEXT
8
AMANDA-TEXTO
62
7
10
19.794048
20
12.700000
30
0.000000
40
0.4500
1
REQ-02-03#1
0
LWPOLYLINE
8
AMANDA-AMBIENTES
62
4
90
4
70
1
10
25.601190
20
10.825000
10
25.601190
20
15.025000
10
22.029762
20
15.025000
10
22.029762
20
10.825000
0
TEXT
8
AMANDA-TEXTO
62
7
10
23.365476
20
12.700000
30
0.000000
40
0.4500
1
REQ-02-03#2
0
LWPOLYLINE
8
AMANDA-AMBIENTES
62
4
90
4
70
1
10
29.886905
20
10.825000
10
29.886905
20
15.025000
10
25.601190
20
15.025000
10
25.601190
20
10.825000
0
TEXT
8
AMANDA-TEXTO
62
7
10
27.294048
20
12.700000
30
0.000000
40
0.4500
1
REQ-02-04
0
LWPOLYLINE
8
AMANDA-AMBIENTES
62
4
90
4
70
1
10
33.696429
20
10.825000
10
33.696429
20
15.025000
10
29.886905
20
15.025000
10
29.886905
20
10.825000
0
TEXT
8
AMANDA-TEXTO
62
7
10
31.341667
20
12.700000
30
0.000000
40
0.4500
1
REQ-02-05
0
LWPOLYLINE
8
AMANDA-AMBIENTES
62
4
90
4
70
1
10
35.196429
20
10.825000
10
35.196429
20
13.158333
10
33.696429
20
13.158333
10
33.696429
20
10.825000
0
TEXT
8
AMANDA-TEXTO
62
7
10
33.996429
20
11.766667
30
0.000000
40
0.4500
1
REQ-02-06#1
0
LWPOLYLINE
8
AMANDA-AMBIENTES
62
4
90
4
70
1
10
36.696429
20
10.825000
10
36.696429
20
13.158333
10
35.196429
20
13.158333
10
35.196429
20
10.825000
0
TEXT
8
AMANDA-TEXTO
62
7
10
35.496429
20
11.766667
30
0.000000
40
0.4500
1
REQ-02-06#2
0
LWPOLYLINE
8
AMANDA-AMBIENTES
62
4
90
4
70
1
10
38.196429
20
10.825000
10
38.196429
20
13.158333
10
36.696429
20
13.158333
10
36.696429
20
10.825000
0
TEXT
8
AMANDA-TEXTO
62
7
10
36.996429
20
11.766667
30
0.000000
40
0.4500
1
REQ-02-06#3
0
LWPOLYLINE
8
AMANDA-AMBIENTES
62
4
90
4
70
1
10
39.696429
20
10.825000
10
39.696429
20
13.158333
10
38.196429
20
13.158333
10
38.196429
20
10.825000
0
TEXT
8
AMANDA-TEXTO
62
7
10
38.496429
20
11.766667
30
0.000000
40
0.4500
1
REQ-02-06#4
0
LWPOLYLINE
8
AMANDA-AMBIENTES
62
4
90
4
70
1
10
41.196429
20
10.825000
10
41.196429
20
13.158333
10
39.696429
20
13.158333
10
39.696429
20
10.825000
0
TEXT
8
AMANDA-TEXTO
62
7
10
39.996429
20
11.766667
30
0.000000
40
0.4500
1
REQ-02-06#5
0
LWPOLYLINE
8
AMANDA-AMBIENTES
62
4
90
4
70
1
10
42.696429
20
10.825000
10
42.696429
20
13.825000
10
41.196429
20
13.825000
10
41.196429
20
10.825000
0
TEXT
8
AMANDA-TEXTO
62
7
10
41.496429
20
12.100000
30
0.000000
40
0.4500
1
REQ-02-07
0
LWPOLYLINE
8
AMANDA-AMBIENTES
62
4
90
4
70
1
10
49.839286
20
10.825000
10
49.839286
20
15.025000
10
42.696429
20
15.025000
10
42.696429
20
10.825000
0
TEXT
8
AMANDA-TEXTO
62
7
10
45.817857
20
12.700000
30
0.000000
40
0.4500
1
REQ-02-08
0
LWPOLYLINE
8
AMANDA-AMBIENTES
62
4
90
4
70
1
10
55.791667
20
10.825000
10
55.791667
20
15.025000
10
49.839286
20
15.025000
10
49.839286
20
10.825000
0
TEXT
8
AMANDA-TEXTO
62
7
10
52.365476
20
12.700000
30
0.000000
40
0.4500
1
REQ-02-09
0
LWPOLYLINE
8
AMANDA-AMBIENTES
62
4
90
4
70
1
10
58.648810
20
10.825000
10
58.648810
20
15.025000
10
55.791667
20
15.025000
10
55.791667
20
10.825000
0
TEXT
8
AMANDA-TEXTO
62
7
10
56.770238
20
12.700000
30
0.000000
40
0.4500
1
REQ-02-10
0
LWPOLYLINE
8
AMANDA-AMBIENTES
62
4
90
4
70
1
10
64.363095
20
10.825000
10
64.363095
20
15.025000
10
58.648810
20
15.025000
10
58.648810
20
10.825000
0
TEXT
8
AMANDA-TEXTO
62
7
10
61.055952
20
12.700000
30
0.000000
40
0.4500
1
REQ-03-01
0
LWPOLYLINE
8
AMANDA-AMBIENTES
62
4
90
4
70
1
10
68.648810
20
10.825000
10
68.648810
20
15.025000
10
64.363095
20
15.025000
10
64.363095
20
10.825000
0
TEXT
8
AMANDA-TEXTO
62
7
10
66.055952
20
12.700000
30
0.000000
40
0.4500
1
REQ-03-02
0
LWPOLYLINE
8
AMANDA-AMBIENTES
62
4
90
4
70
1
10
70.148810
20
10.825000
10
70.148810
20
14.825000
10
68.648810
20
14.825000
10
68.648810
20
10.825000
0
TEXT
8
AMANDA-TEXTO
62
7
10
68.948810
20
12.600000
30
0.000000
40
0.4500
1
REQ-03-03
0
LWPOLYLINE
8
AMANDA-AMBIENTES
62
4
90
4
70
1
10
71.648810
20
10.825000
10
71.648810
20
13.491667
10
70.148810
20
13.491667
10
70.148810
20
10.825000
0
TEXT
8
AMANDA-TEXTO
62
7
10
70.448810
20
11.933333
30
0.000000
40
0.4500
1
REQ-03-04
0
LWPOLYLINE
8
AMANDA-AMBIENTES
62
4
90
4
70
1
10
74.029762
20
10.825000
10
74.029762
20
15.025000
10
71.648810
20
15.025000
10
71.648810
20
10.825000
0
TEXT
8
AMANDA-TEXTO
62
7
10
72.389286
20
12.700000
30
0.000000
40
0.4500
1
REQ-04-01
0
LWPOLYLINE
8
AMANDA-AMBIENTES
62
4
90
4
70
1
10
76.410714
20
10.825000
10
76.410714
20
15.025000
10
74.029762
20
15.025000
10
74.029762
20
10.825000
0
TEXT
8
AMANDA-TEXTO
62
7
10
74.770238
20
12.700000
30
0.000000
40
0.4500
1
REQ-04-02
0
LWPOLYLINE
8
AMANDA-AMBIENTES
62
4
90
4
70
1
10
78.791667
20
10.825000
10
78.791667
20
15.025000
10
76.410714
20
15.025000
10
76.410714
20
10.825000
0
TEXT
8
AMANDA-TEXTO
62
7
10
77.151190
20
12.700000
30
0.000000
40
0.4500
1
REQ-04-03
0
LWPOLYLINE
8
AMANDA-AMBIENTES
62
4
90
4
70
1
10
82.363095
20
10.825000
10
82.363095
20
15.025000
10
78.791667
20
15.025000
10
78.791667
20
10.825000
0
TEXT
8
AMANDA-TEXTO
62
7
10
80.127381
20
12.700000
30
0.000000
40
0.4500
1
REQ-04-04
0
LWPOLYLINE
8
AMANDA-AMBIENTES
62
4
90
4
70
1
10
89.505952
20
10.825000
10
89.505952
20
15.025000
10
82.363095
20
15.025000
10
82.363095
20
10.825000
0
TEXT
8
AMANDA-TEXTO
62
7
10
85.484524
20
12.700000
30
0.000000
40
0.4500
1
REQ-04-05
0
LWPOLYLINE
8
AMANDA-AMBIENTES
62
4
90
4
70
1
10
91.005952
20
10.825000
10
91.005952
20
14.158333
10
89.505952
20
14.158333
10
89.505952
20
10.825000
0
TEXT
8
AMANDA-TEXTO
62
7
10
89.805952
20
12.266667
30
0.000000
40
0.4500
1
REQ-04-06
0
LWPOLYLINE
8
AMANDA-AMBIENTES
62
4
90
4
70
1
10
32.101190
20
5.125000
10
32.101190
20
9.325000
10
17.815476
20
9.325000
10
17.815476
20
5.125000
0
TEXT
8
AMANDA-TEXTO
62
7
10
24.508333
20
7.000000
30
0.000000
40
0.4500
1
REQ-05-01
0
LWPOLYLINE
8
AMANDA-AMBIENTES
62
4
90
4
70
1
10
34.005952
20
5.125000
10
34.005952
20
9.325000
10
32.101190
20
9.325000
10
32.101190
20
5.125000
0
TEXT
8
AMANDA-TEXTO
62
7
10
32.603571
20
7.000000
30
0.000000
40
0.4500
1
REQ-05-02
0
LWPOLYLINE
8
AMANDA-AMBIENTES
62
4
90
4
70
1
10
35.910714
20
5.125000
10
35.910714
20
9.325000
10
34.005952
20
9.325000
10
34.005952
20
5.125000
0
TEXT
8
AMANDA-TEXTO
62
7
10
34.508333
20
7.000000
30
0.000000
40
0.4500
1
REQ-05-03
0
LWPOLYLINE
8
AMANDA-AMBIENTES
62
4
90
4
70
1
10
37.410714
20
5.991667
10
37.410714
20
9.325000
10
35.910714
20
9.325000
10
35.910714
20
5.991667
0
TEXT
8
AMANDA-TEXTO
62
7
10
36.210714
20
7.433333
30
0.000000
40
0.4500
1
REQ-05-04
0
LWPOLYLINE
8
AMANDA-AMBIENTES
62
4
90
4
70
1
10
39.791667
20
5.125000
10
39.791667
20
9.325000
10
37.410714
20
9.325000
10
37.410714
20
5.125000
0
TEXT
8
AMANDA-TEXTO
62
7
10
38.151190
20
7.000000
30
0.000000
40
0.4500
1
REQ-06-01
0
LWPOLYLINE
8
AMANDA-AMBIENTES
62
4
90
4
70
1
10
42.648810
20
5.125000
10
42.648810
20
9.325000
10
39.791667
20
9.325000
10
39.791667
20
5.125000
0
TEXT
8
AMANDA-TEXTO
62
7
10
40.770238
20
7.000000
30
0.000000
40
0.4500
1
REQ-06-02
0
LWPOLYLINE
8
AMANDA-AMBIENTES
62
4
90
4
70
1
10
46.220238
20
5.125000
10
46.220238
20
9.325000
10
42.648810
20
9.325000
10
42.648810
20
5.125000
0
TEXT
8
AMANDA-TEXTO
62
7
10
43.984524
20
7.000000
30
0.000000
40
0.4500
1
REQ-06-03
0
LWPOLYLINE
8
AMANDA-AMBIENTES
62
4
90
4
70
1
10
49.791667
20
5.125000
10
49.791667
20
9.325000
10
46.220238
20
9.325000
10
46.220238
20
5.125000
0
TEXT
8
AMANDA-TEXTO
62
7
10
47.555952
20
7.000000
30
0.000000
40
0.4500
1
REQ-06-04
0
LWPOLYLINE
8
AMANDA-AMBIENTES
62
4
90
4
70
1
10
52.172619
20
5.125000
10
52.172619
20
9.325000
10
49.791667
20
9.325000
10
49.791667
20
5.125000
0
TEXT
8
AMANDA-TEXTO
62
7
10
50.532143
20
7.000000
30
0.000000
40
0.4500
1
REQ-06-05
0
LWPOLYLINE
8
AMANDA-AMBIENTES
62
4
90
4
70
1
10
58.125000
20
5.125000
10
58.125000
20
9.325000
10
52.172619
20
9.325000
10
52.172619
20
5.125000
0
TEXT
8
AMANDA-TEXTO
62
7
10
54.698810
20
7.000000
30
0.000000
40
0.4500
1
REQ-06-06
0
LWPOLYLINE
8
AMANDA-AMBIENTES
62
4
90
4
70
1
10
59.625000
20
5.325000
10
59.625000
20
9.325000
10
58.125000
20
9.325000
10
58.125000
20
5.325000
0
TEXT
8
AMANDA-TEXTO
62
7
10
58.425000
20
7.100000
30
0.000000
40
0.4500
1
REQ-06-07
0
LWPOLYLINE
8
AMANDA-AMBIENTES
62
4
90
4
70
1
10
61.125000
20
6.658333
10
61.125000
20
9.325000
10
59.625000
20
9.325000
10
59.625000
20
6.658333
0
TEXT
8
AMANDA-TEXTO
62
7
10
59.925000
20
7.766667
30
0.000000
40
0.4500
1
REQ-06-08
0
LWPOLYLINE
8
AMANDA-AMBIENTES
62
4
90
4
70
1
10
63.982143
20
5.125000
10
63.982143
20
9.325000
10
61.125000
20
9.325000
10
61.125000
20
5.125000
0
TEXT
8
AMANDA-TEXTO
62
7
10
62.103571
20
7.000000
30
0.000000
40
0.4500
1
REQ-06-09
0
LWPOLYLINE
8
AMANDA-AMBIENTES
62
4
90
4
70
1
10
65.482143
20
5.325000
10
65.482143
20
9.325000
10
63.982143
20
9.325000
10
63.982143
20
5.325000
0
TEXT
8
AMANDA-TEXTO
62
7
10
64.282143
20
7.100000
30
0.000000
40
0.4500
1
REQ-06-10
0
LWPOLYLINE
8
AMANDA-AMBIENTES
62
4
90
4
70
1
10
67.386905
20
5.125000
10
67.386905
20
9.325000
10
65.482143
20
9.325000
10
65.482143
20
5.125000
0
TEXT
8
AMANDA-TEXTO
62
7
10
65.984524
20
7.000000
30
0.000000
40
0.4500
1
REQ-06-11
0
LWPOLYLINE
8
AMANDA-AMBIENTES
62
4
90
4
70
1
10
68.886905
20
5.325000
10
68.886905
20
9.325000
10
67.386905
20
9.325000
10
67.386905
20
5.325000
0
TEXT
8
AMANDA-TEXTO
62
7
10
67.686905
20
7.100000
30
0.000000
40
0.4500
1
REQ-06-12
0
LWPOLYLINE
8
AMANDA-AMBIENTES
62
4
90
4
70
1
10
70.386905
20
7.325000
10
70.386905
20
9.325000
10
68.886905
20
9.325000
10
68.886905
20
7.325000
0
TEXT
8
AMANDA-TEXTO
62
7
10
69.186905
20
8.100000
30
0.000000
40
0.4500
1
REQ-06-13
0
LWPOLYLINE
8
AMANDA-AMBIENTES
62
4
90
4
70
1
10
73.958333
20
5.125000
10
73.958333
20
9.325000
10
70.386905
20
9.325000
10
70.386905
20
5.125000
0
TEXT
8
AMANDA-TEXTO
62
7
10
71.722619
20
7.000000
30
0.000000
40
0.4500
1
REQ-06-14
0
LWPOLYLINE
8
AMANDA-AMBIENTES
62
4
90
4
70
1
10
75.458333
20
6.658333
10
75.458333
20
9.325000
10
73.958333
20
9.325000
10
73.958333
20
6.658333
0
TEXT
8
AMANDA-TEXTO
62
7
10
74.258333
20
7.766667
30
0.000000
40
0.4500
1
REQ-06-15
0
LWPOLYLINE
8
AMANDA-GALERIA
62
2
90
4
70
1
10
94.245952
20
9.325000
10
94.245952
20
10.825000
10
5.125000
20
10.825000
10
5.125000
20
9.325000
0
LWPOLYLINE
8
AMANDA-PAREDES
62
1
90
48
70
1
10
59.750000
20
5.200000
10
58.250000
20
5.200000
10
58.250000
20
5.000000
10
37.285714
20
5.000000
10
37.285714
20
5.866667
10
36.035714
20
5.866667
10
36.035714
20
5.000000
10
17.690476
20
5.000000
10
17.690476
20
5.200000
10
16.440476
20
5.200000
10
16.440476
20
5.000000
10
5.000000
20
5.000000
10
5.000000
20
15.150000
10
33.821429
20
15.150000
10
33.821429
20
13.283333
10
41.071429
20
13.283333
10
41.071429
20
13.950000
10
42.571429
20
13.950000
10
42.571429
20
15.150000
10
68.773810
20
15.150000
10
68.773810
20
14.950000
10
70.273810
20
14.950000
10
70.273810
20
13.616667
10
71.523810
20
13.616667
10
71.523810
20
15.150000
10
89.630952
20
15.150000
10
89.630952
20
14.283333
10
91.130952
20
14.283333
10
91.130952
20
10.950000
10
94.370952
20
10.950000
10
94.370952
20
9.200000
10
75.583333
20
9.200000
10
75.583333
20
6.533333
10
74.083333
20
6.533333
10
74.083333
20
5.000000
10
70.261905
20
5.000000
10
70.261905
20
7.200000
10
69.011905
20
7.200000
10
69.011905
20
5.200000
10
67.511905
20
5.200000
10
67.511905
20
5.000000
10
65.357143
20
5.000000
10
65.357143
20
5.200000
10
64.107143
20
5.200000
10
64.107143
20
5.000000
10
61.000000
20
5.000000
10
61.000000
20
6.533333
10
59.750000
20
6.533333
0
LINE
8
AMANDA-ABERTURAS
62
5
10
5.815476
20
5.125000
30
0.0
11
6.815476
21
5.125000
31
0.0
0
LINE
8
AMANDA-ABERTURAS
62
5
10
5.715476
20
9.325000
30
0.0
11
6.915476
21
9.325000
31
0.0
0
LINE
8
AMANDA-ABERTURAS
62
5
10
8.791667
20
5.125000
30
0.0
11
9.791667
21
5.125000
31
0.0
0
LINE
8
AMANDA-ABERTURAS
62
5
10
8.691667
20
9.325000
30
0.0
11
9.891667
21
9.325000
31
0.0
0
LINE
8
AMANDA-ABERTURAS
62
5
10
12.005952
20
5.125000
30
0.0
11
13.005952
21
5.125000
31
0.0
0
LINE
8
AMANDA-ABERTURAS
62
5
10
11.905952
20
9.325000
30
0.0
11
13.105952
21
9.325000
31
0.0
0
LINE
8
AMANDA-ABERTURAS
62
5
10
14.625000
20
5.125000
30
0.0
11
15.625000
21
5.125000
31
0.0
0
LINE
8
AMANDA-ABERTURAS
62
5
10
14.525000
20
9.325000
30
0.0
11
15.725000
21
9.325000
31
0.0
0
LINE
8
AMANDA-ABERTURAS
62
5
10
16.565476
20
5.325000
30
0.0
11
17.565476
21
5.325000
31
0.0
0
LINE
8
AMANDA-ABERTURAS
62
5
10
5.815476
20
10.825000
30
0.0
11
6.815476
21
10.825000
31
0.0
0
LINE
8
AMANDA-ABERTURAS
62
5
10
5.715476
20
15.025000
30
0.0
11
6.915476
21
15.025000
31
0.0
0
LINE
8
AMANDA-ABERTURAS
62
5
10
8.196429
20
10.825000
30
0.0
11
9.196429
21
10.825000
31
0.0
0
LINE
8
AMANDA-ABERTURAS
62
5
10
8.096429
20
15.025000
30
0.0
11
9.296429
21
15.025000
31
0.0
0
LINE
8
AMANDA-ABERTURAS
62
5
10
10.815476
20
10.825000
30
0.0
11
11.815476
21
10.825000
31
0.0
0
LINE
8
AMANDA-ABERTURAS
62
5
10
10.715476
20
15.025000
30
0.0
11
11.915476
21
15.025000
31
0.0
0
LINE
8
AMANDA-ABERTURAS
62
5
10
13.672619
20
10.825000
30
0.0
11
14.672619
21
10.825000
31
0.0
0
LINE
8
AMANDA-ABERTURAS
62
5
10
13.572619
20
15.025000
30
0.0
11
14.772619
21
15.025000
31
0.0
0
LINE
8
AMANDA-ABERTURAS
62
5
10
16.529762
20
10.825000
30
0.0
11
17.529762
21
10.825000
31
0.0
0
LINE
8
AMANDA-ABERTURAS
62
5
10
16.429762
20
15.025000
30
0.0
11
17.629762
21
15.025000
31
0.0
0
LINE
8
AMANDA-ABERTURAS
62
5
10
19.744048
20
10.825000
30
0.0
11
20.744048
21
10.825000
31
0.0
0
LINE
8
AMANDA-ABERTURAS
62
5
10
19.644048
20
15.025000
30
0.0
11
20.844048
21
15.025000
31
0.0
0
LINE
8
AMANDA-ABERTURAS
62
5
10
23.315476
20
10.825000
30
0.0
11
24.315476
21
10.825000
31
0.0
0
LINE
8
AMANDA-ABERTURAS
62
5
10
23.215476
20
15.025000
30
0.0
11
24.415476
21
15.025000
31
0.0
0
LINE
8
AMANDA-ABERTURAS
62
5
10
27.244048
20
10.825000
30
0.0
11
28.244048
21
10.825000
31
0.0
0
LINE
8
AMANDA-ABERTURAS
62
5
10
27.144048
20
15.025000
30
0.0
11
28.344048
21
15.025000
31
0.0
0
LINE
8
AMANDA-ABERTURAS
62
5
10
31.291667
20
10.825000
30
0.0
11
32.291667
21
10.825000
31
0.0
0
LINE
8
AMANDA-ABERTURAS
62
5
10
31.191667
20
15.025000
30
0.0
11
32.391667
21
15.025000
31
0.0
0
LINE
8
AMANDA-ABERTURAS
62
5
10
33.946429
20
10.825000
30
0.0
11
34.946429
21
10.825000
31
0.0
0
LINE
8
AMANDA-ABERTURAS
62
5
10
35.446429
20
10.825000
30
0.0
11
36.446429
21
10.825000
31
0.0
0
LINE
8
AMANDA-ABERTURAS
62
5
10
36.946429
20
10.825000
30
0.0
11
37.946429
21
10.825000
31
0.0
0
LINE
8
AMANDA-ABERTURAS
62
5
10
38.446429
20
10.825000
30
0.0
11
39.446429
21
10.825000
31
0.0
0
LINE
8
AMANDA-ABERTURAS
62
5
10
39.946429
20
10.825000
30
0.0
11
40.946429
21
10.825000
31
0.0
0
LINE
8
AMANDA-ABERTURAS
62
5
10
41.446429
20
10.825000
30
0.0
11
42.446429
21
10.825000
31
0.0
0
LINE
8
AMANDA-ABERTURAS
62
5
10
45.767857
20
10.825000
30
0.0
11
46.767857
21
10.825000
31
0.0
0
LINE
8
AMANDA-ABERTURAS
62
5
10
45.667857
20
15.025000
30
0.0
11
46.867857
21
15.025000
31
0.0
0
LINE
8
AMANDA-ABERTURAS
62
5
10
52.315476
20
10.825000
30
0.0
11
53.315476
21
10.825000
31
0.0
0
LINE
8
AMANDA-ABERTURAS
62
5
10
52.215476
20
15.025000
30
0.0
11
53.415476
21
15.025000
31
0.0
0
LINE
8
AMANDA-ABERTURAS
62
5
10
56.720238
20
10.825000
30
0.0
11
57.720238
21
10.825000
31
0.0
0
LINE
8
AMANDA-ABERTURAS
62
5
10
56.620238
20
15.025000
30
0.0
11
57.820238
21
15.025000
31
0.0
0
LINE
8
AMANDA-ABERTURAS
62
5
10
61.005952
20
10.825000
30
0.0
11
62.005952
21
10.825000
31
0.0
0
LINE
8
AMANDA-ABERTURAS
62
5
10
60.905952
20
15.025000
30
0.0
11
62.105952
21
15.025000
31
0.0
0
LINE
8
AMANDA-ABERTURAS
62
5
10
66.005952
20
10.825000
30
0.0
11
67.005952
21
10.825000
31
0.0
0
LINE
8
AMANDA-ABERTURAS
62
5
10
65.905952
20
15.025000
30
0.0
11
67.105952
21
15.025000
31
0.0
0
LINE
8
AMANDA-ABERTURAS
62
5
10
68.898810
20
10.825000
30
0.0
11
69.898810
21
10.825000
31
0.0
0
LINE
8
AMANDA-ABERTURAS
62
5
10
70.398810
20
10.825000
30
0.0
11
71.398810
21
10.825000
31
0.0
0
LINE
8
AMANDA-ABERTURAS
62
5
10
72.339286
20
10.825000
30
0.0
11
73.339286
21
10.825000
31
0.0
0
LINE
8
AMANDA-ABERTURAS
62
5
10
72.239286
20
15.025000
30
0.0
11
73.439286
21
15.025000
31
0.0
0
LINE
8
AMANDA-ABERTURAS
62
5
10
74.720238
20
10.825000
30
0.0
11
75.720238
21
10.825000
31
0.0
0
LINE
8
AMANDA-ABERTURAS
62
5
10
74.620238
20
15.025000
30
0.0
11
75.820238
21
15.025000
31
0.0
0
LINE
8
AMANDA-ABERTURAS
62
5
10
77.101190
20
10.825000
30
0.0
11
78.101190
21
10.825000
31
0.0
0
LINE
8
AMANDA-ABERTURAS
62
5
10
77.001190
20
15.025000
30
0.0
11
78.201190
21
15.025000
31
0.0
0
LINE
8
AMANDA-ABERTURAS
62
5
10
80.077381
20
10.825000
30
0.0
11
81.077381
21
10.825000
31
0.0
0
LINE
8
AMANDA-ABERTURAS
62
5
10
79.977381
20
15.025000
30
0.0
11
81.177381
21
15.025000
31
0.0
0
LINE
8
AMANDA-ABERTURAS
62
5
10
85.434524
20
10.825000
30
0.0
11
86.434524
21
10.825000
31
0.0
0
LINE
8
AMANDA-ABERTURAS
62
5
10
85.334524
20
15.025000
30
0.0
11
86.534524
21
15.025000
31
0.0
0
LINE
8
AMANDA-ABERTURAS
62
5
10
89.755952
20
10.825000
30
0.0
11
90.755952
21
10.825000
31
0.0
0
LINE
8
AMANDA-ABERTURAS
62
5
10
24.458333
20
5.125000
30
0.0
11
25.458333
21
5.125000
31
0.0
0
LINE
8
AMANDA-ABERTURAS
62
5
10
24.358333
20
9.325000
30
0.0
11
25.558333
21
9.325000
31
0.0
0
LINE
8
AMANDA-ABERTURAS
62
5
10
32.553571
20
5.125000
30
0.0
11
33.553571
21
5.125000
31
0.0
0
LINE
8
AMANDA-ABERTURAS
62
5
10
32.453571
20
9.325000
30
0.0
11
33.653571
21
9.325000
31
0.0
0
LINE
8
AMANDA-ABERTURAS
62
5
10
34.458333
20
5.125000
30
0.0
11
35.458333
21
5.125000
31
0.0
0
LINE
8
AMANDA-ABERTURAS
62
5
10
34.358333
20
9.325000
30
0.0
11
35.558333
21
9.325000
31
0.0
0
LINE
8
AMANDA-ABERTURAS
62
5
10
36.160714
20
5.991667
30
0.0
11
37.160714
21
5.991667
31
0.0
0
LINE
8
AMANDA-ABERTURAS
62
5
10
38.101190
20
5.125000
30
0.0
11
39.101190
21
5.125000
31
0.0
0
LINE
8
AMANDA-ABERTURAS
62
5
10
38.001190
20
9.325000
30
0.0
11
39.201190
21
9.325000
31
0.0
0
LINE
8
AMANDA-ABERTURAS
62
5
10
40.720238
20
5.125000
30
0.0
11
41.720238
21
5.125000
31
0.0
0
LINE
8
AMANDA-ABERTURAS
62
5
10
40.620238
20
9.325000
30
0.0
11
41.820238
21
9.325000
31
0.0
0
LINE
8
AMANDA-ABERTURAS
62
5
10
43.934524
20
5.125000
30
0.0
11
44.934524
21
5.125000
31
0.0
0
LINE
8
AMANDA-ABERTURAS
62
5
10
43.834524
20
9.325000
30
0.0
11
45.034524
21
9.325000
31
0.0
0
LINE
8
AMANDA-ABERTURAS
62
5
10
47.505952
20
5.125000
30
0.0
11
48.505952
21
5.125000
31
0.0
0
LINE
8
AMANDA-ABERTURAS
62
5
10
47.405952
20
9.325000
30
0.0
11
48.605952
21
9.325000
31
0.0
0
LINE
8
AMANDA-ABERTURAS
62
5
10
50.482143
20
5.125000
30
0.0
11
51.482143
21
5.125000
31
0.0
0
LINE
8
AMANDA-ABERTURAS
62
5
10
50.382143
20
9.325000
30
0.0
11
51.582143
21
9.325000
31
0.0
0
LINE
8
AMANDA-ABERTURAS
62
5
10
54.648810
20
5.125000
30
0.0
11
55.648810
21
5.125000
31
0.0
0
LINE
8
AMANDA-ABERTURAS
62
5
10
54.548810
20
9.325000
30
0.0
11
55.748810
21
9.325000
31
0.0
0
LINE
8
AMANDA-ABERTURAS
62
5
10
58.375000
20
5.325000
30
0.0
11
59.375000
21
5.325000
31
0.0
0
LINE
8
AMANDA-ABERTURAS
62
5
10
59.875000
20
6.658333
30
0.0
11
60.875000
21
6.658333
31
0.0
0
LINE
8
AMANDA-ABERTURAS
62
5
10
62.053571
20
5.125000
30
0.0
11
63.053571
21
5.125000
31
0.0
0
LINE
8
AMANDA-ABERTURAS
62
5
10
61.953571
20
9.325000
30
0.0
11
63.153571
21
9.325000
31
0.0
0
LINE
8
AMANDA-ABERTURAS
62
5
10
64.232143
20
5.325000
30
0.0
11
65.232143
21
5.325000
31
0.0
0
LINE
8
AMANDA-ABERTURAS
62
5
10
65.934524
20
5.125000
30
0.0
11
66.934524
21
5.125000
31
0.0
0
LINE
8
AMANDA-ABERTURAS
62
5
10
65.834524
20
9.325000
30
0.0
11
67.034524
21
9.325000
31
0.0
0
LINE
8
AMANDA-ABERTURAS
62
5
10
67.636905
20
5.325000
30
0.0
11
68.636905
21
5.325000
31
0.0
0
LINE
8
AMANDA-ABERTURAS
62
5
10
69.136905
20
7.325000
30
0.0
11
70.136905
21
7.325000
31
0.0
0
LINE
8
AMANDA-ABERTURAS
62
5
10
71.672619
20
5.125000
30
0.0
11
72.672619
21
5.125000
31
0.0
0
LINE
8
AMANDA-ABERTURAS
62
5
10
71.572619
20
9.325000
30
0.0
11
72.772619
21
9.325000
31
0.0
0
LINE
8
AMANDA-ABERTURAS
62
5
10
74.208333
20
6.658333
30
0.0
11
75.208333
21
6.658333
31
0.0
0
ENDSEC
0
EOF
